<?xml version="1.0" encoding="UTF-8" standalone="no"?>
<!DOCTYPE svg PUBLIC "-//W3C//DTD SVG 1.1//EN"
 "http://www.w3.org/Graphics/SVG/1.1/DTD/svg11.dtd">
<!-- Generated by graphviz version 2.38.0 (20140413.2041)
 -->
<!-- Title: Tree Pages: 1 -->
<svg width="598pt" height="260pt"
 viewBox="0.00 0.00 598.49 260.00" xmlns="http://www.w3.org/2000/svg" xmlns:xlink="http://www.w3.org/1999/xlink">
<g id="graph0" class="graph" transform="scale(1 1) rotate(0) translate(4 256)">
<title>Tree</title>
<polygon fill="white" stroke="none" points="-4,4 -4,-256 594.495,-256 594.495,4 -4,4"/>
<!-- a0 -->
<g id="node1" class="node"><title>a0</title>
<ellipse fill="none" stroke="black" cx="295.247" cy="-234" rx="29.4969" ry="18"/>
<text text-anchor="middle" x="295.247" y="-230.3" font-family="Times,serif" font-size="14.00">sort</text>
</g>
<!-- a1 -->
<g id="node2" class="node"><title>a1</title>
<ellipse fill="none" stroke="black" cx="219.247" cy="-162" rx="29.4969" ry="18"/>
<text text-anchor="middle" x="219.247" y="-158.3" font-family="Times,serif" font-size="14.00">sort</text>
</g>
<!-- a0&#45;&gt;a1 -->
<g id="edge1" class="edge"><title>a0&#45;&gt;a1</title>
<path fill="none" stroke="black" d="M279.5,-218.496C268.8,-208.641 254.466,-195.439 242.464,-184.383"/>
<polygon fill="black" stroke="black" points="244.701,-181.686 234.974,-177.485 239.959,-186.835 244.701,-181.686"/>
</g>
<!-- a2 -->
<g id="node3" class="node"><title>a2</title>
<ellipse fill="none" stroke="black" cx="371.247" cy="-162" rx="29.4969" ry="18"/>
<text text-anchor="middle" x="371.247" y="-158.3" font-family="Times,serif" font-size="14.00">sort</text>
</g>
<!-- a0&#45;&gt;a2 -->
<g id="edge2" class="edge"><title>a0&#45;&gt;a2</title>
<path fill="none" stroke="black" d="M310.995,-218.496C321.694,-208.641 336.028,-195.439 348.031,-184.383"/>
<polygon fill="black" stroke="black" points="350.536,-186.835 355.52,-177.485 345.794,-181.686 350.536,-186.835"/>
</g>
<!-- a4 -->
<g id="node4" class="node"><title>a4</title>
<ellipse fill="none" stroke="black" cx="105.247" cy="-90" rx="29.4969" ry="18"/>
<text text-anchor="middle" x="105.247" y="-86.3" font-family="Times,serif" font-size="14.00">sort</text>
</g>
<!-- a1&#45;&gt;a4 -->
<g id="edge3" class="edge"><title>a1&#45;&gt;a4</title>
<path fill="none" stroke="black" d="M199.129,-148.647C180.977,-137.501 154.08,-120.985 133.723,-108.485"/>
<polygon fill="black" stroke="black" points="135.518,-105.48 125.165,-103.23 131.855,-111.445 135.518,-105.48"/>
</g>
<!-- a3 -->
<g id="node5" class="node"><title>a3</title>
<ellipse fill="none" stroke="black" cx="219.247" cy="-90" rx="29.4969" ry="18"/>
<text text-anchor="middle" x="219.247" y="-86.3" font-family="Times,serif" font-size="14.00">sort</text>
</g>
<!-- a1&#45;&gt;a3 -->
<g id="edge4" class="edge"><title>a1&#45;&gt;a3</title>
<path fill="none" stroke="black" d="M219.247,-143.697C219.247,-135.983 219.247,-126.712 219.247,-118.112"/>
<polygon fill="black" stroke="black" points="222.748,-118.104 219.247,-108.104 215.748,-118.104 222.748,-118.104"/>
</g>
<!-- a5 -->
<g id="node6" class="node"><title>a5</title>
<ellipse fill="none" stroke="black" cx="371.247" cy="-90" rx="29.4969" ry="18"/>
<text text-anchor="middle" x="371.247" y="-86.3" font-family="Times,serif" font-size="14.00">sort</text>
</g>
<!-- a2&#45;&gt;a5 -->
<g id="edge5" class="edge"><title>a2&#45;&gt;a5</title>
<path fill="none" stroke="black" d="M371.247,-143.697C371.247,-135.983 371.247,-126.712 371.247,-118.112"/>
<polygon fill="black" stroke="black" points="374.748,-118.104 371.247,-108.104 367.748,-118.104 374.748,-118.104"/>
</g>
<!-- a6 -->
<g id="node7" class="node"><title>a6</title>
<ellipse fill="none" stroke="black" cx="485.247" cy="-90" rx="29.4969" ry="18"/>
<text text-anchor="middle" x="485.247" y="-86.3" font-family="Times,serif" font-size="14.00">sort</text>
</g>
<!-- a2&#45;&gt;a6 -->
<g id="edge6" class="edge"><title>a2&#45;&gt;a6</title>
<path fill="none" stroke="black" d="M391.366,-148.647C409.518,-137.501 436.415,-120.985 456.772,-108.485"/>
<polygon fill="black" stroke="black" points="458.64,-111.445 465.33,-103.23 454.977,-105.48 458.64,-111.445"/>
</g>
<!-- a9 -->
<g id="node10" class="node"><title>a9</title>
<ellipse fill="none" stroke="black" cx="29.2474" cy="-18" rx="29.4969" ry="18"/>
<text text-anchor="middle" x="29.2474" y="-14.3" font-family="Times,serif" font-size="14.00">sort</text>
</g>
<!-- a4&#45;&gt;a9 -->
<g id="edge9" class="edge"><title>a4&#45;&gt;a9</title>
<path fill="none" stroke="black" d="M89.5002,-74.496C78.8004,-64.6409 64.4664,-51.4386 52.4637,-40.3834"/>
<polygon fill="black" stroke="black" points="54.7011,-37.6858 44.9745,-33.4855 49.9588,-42.8347 54.7011,-37.6858"/>
</g>
<!-- a10 -->
<g id="node11" class="node"><title>a10</title>
<ellipse fill="none" stroke="black" cx="105.247" cy="-18" rx="29.4969" ry="18"/>
<text text-anchor="middle" x="105.247" y="-14.3" font-family="Times,serif" font-size="14.00">sort</text>
</g>
<!-- a4&#45;&gt;a10 -->
<g id="edge10" class="edge"><title>a4&#45;&gt;a10</title>
<path fill="none" stroke="black" d="M105.247,-71.6966C105.247,-63.9827 105.247,-54.7125 105.247,-46.1124"/>
<polygon fill="black" stroke="black" points="108.748,-46.1043 105.247,-36.1043 101.748,-46.1044 108.748,-46.1043"/>
</g>
<!-- a7 -->
<g id="node8" class="node"><title>a7</title>
<ellipse fill="none" stroke="black" cx="181.247" cy="-18" rx="29.4969" ry="18"/>
<text text-anchor="middle" x="181.247" y="-14.3" font-family="Times,serif" font-size="14.00">sort</text>
</g>
<!-- a3&#45;&gt;a7 -->
<g id="edge7" class="edge"><title>a3&#45;&gt;a7</title>
<path fill="none" stroke="black" d="M210.434,-72.7646C205.895,-64.4043 200.256,-54.0159 195.148,-44.6059"/>
<polygon fill="black" stroke="black" points="198.124,-42.7521 190.277,-35.6334 191.972,-46.0918 198.124,-42.7521"/>
</g>
<!-- a8 -->
<g id="node9" class="node"><title>a8</title>
<ellipse fill="none" stroke="black" cx="257.247" cy="-18" rx="29.4969" ry="18"/>
<text text-anchor="middle" x="257.247" y="-14.3" font-family="Times,serif" font-size="14.00">sort</text>
</g>
<!-- a3&#45;&gt;a8 -->
<g id="edge8" class="edge"><title>a3&#45;&gt;a8</title>
<path fill="none" stroke="black" d="M228.061,-72.7646C232.599,-64.4043 238.239,-54.0159 243.347,-44.6059"/>
<polygon fill="black" stroke="black" points="246.523,-46.0918 248.218,-35.6334 240.371,-42.7521 246.523,-46.0918"/>
</g>
<!-- a11 -->
<g id="node12" class="node"><title>a11</title>
<ellipse fill="none" stroke="black" cx="333.247" cy="-18" rx="29.4969" ry="18"/>
<text text-anchor="middle" x="333.247" y="-14.3" font-family="Times,serif" font-size="14.00">sort</text>
</g>
<!-- a5&#45;&gt;a11 -->
<g id="edge11" class="edge"><title>a5&#45;&gt;a11</title>
<path fill="none" stroke="black" d="M362.434,-72.7646C357.895,-64.4043 352.256,-54.0159 347.148,-44.6059"/>
<polygon fill="black" stroke="black" points="350.124,-42.7521 342.277,-35.6334 343.972,-46.0918 350.124,-42.7521"/>
</g>
<!-- a12 -->
<g id="node13" class="node"><title>a12</title>
<ellipse fill="none" stroke="black" cx="409.247" cy="-18" rx="29.4969" ry="18"/>
<text text-anchor="middle" x="409.247" y="-14.3" font-family="Times,serif" font-size="14.00">sort</text>
</g>
<!-- a5&#45;&gt;a12 -->
<g id="edge12" class="edge"><title>a5&#45;&gt;a12</title>
<path fill="none" stroke="black" d="M380.061,-72.7646C384.599,-64.4043 390.239,-54.0159 395.347,-44.6059"/>
<polygon fill="black" stroke="black" points="398.523,-46.0918 400.218,-35.6334 392.371,-42.7521 398.523,-46.0918"/>
</g>
<!-- a13 -->
<g id="node14" class="node"><title>a13</title>
<ellipse fill="none" stroke="black" cx="485.247" cy="-18" rx="29.4969" ry="18"/>
<text text-anchor="middle" x="485.247" y="-14.3" font-family="Times,serif" font-size="14.00">sort</text>
</g>
<!-- a6&#45;&gt;a13 -->
<g id="edge13" class="edge"><title>a6&#45;&gt;a13</title>
<path fill="none" stroke="black" d="M485.247,-71.6966C485.247,-63.9827 485.247,-54.7125 485.247,-46.1124"/>
<polygon fill="black" stroke="black" points="488.748,-46.1043 485.247,-36.1043 481.748,-46.1044 488.748,-46.1043"/>
</g>
<!-- a14 -->
<g id="node15" class="node"><title>a14</title>
<ellipse fill="none" stroke="black" cx="561.247" cy="-18" rx="29.4969" ry="18"/>
<text text-anchor="middle" x="561.247" y="-14.3" font-family="Times,serif" font-size="14.00">sort</text>
</g>
<!-- a6&#45;&gt;a14 -->
<g id="edge14" class="edge"><title>a6&#45;&gt;a14</title>
<path fill="none" stroke="black" d="M500.995,-74.496C511.694,-64.6409 526.028,-51.4386 538.031,-40.3834"/>
<polygon fill="black" stroke="black" points="540.536,-42.8347 545.52,-33.4855 535.794,-37.6858 540.536,-42.8347"/>
</g>
</g>
</svg>
