<?xml version="1.0" encoding="UTF-8" standalone="no"?>
<!DOCTYPE svg PUBLIC "-//W3C//DTD SVG 1.1//EN"
 "http://www.w3.org/Graphics/SVG/1.1/DTD/svg11.dtd">
<!-- Generated by graphviz version 2.38.0 (20140413.2041)
 -->
<!-- Title: Tree Pages: 1 -->
<svg width="598pt" height="369pt"
 viewBox="0.00 0.00 598.49 369.00" xmlns="http://www.w3.org/2000/svg" xmlns:xlink="http://www.w3.org/1999/xlink">
<g id="graph0" class="graph" transform="scale(1 1) rotate(0) translate(4 365)">
<title>Tree</title>
<polygon fill="white" stroke="none" points="-4,4 -4,-365 594.495,-365 594.495,4 -4,4"/>
<!-- 1 -->
<g id="node1" class="node"><title>1</title>
</g>
<!-- 2 -->
<g id="node2" class="node"><title>2</title>
</g>
<!-- 3 -->
<g id="node3" class="node"><title>3</title>
</g>
<!-- 4 -->
<g id="node4" class="node"><title>4</title>
</g>
<!-- 5 -->
<g id="node5" class="node"><title>5</title>
</g>
<!-- 6 -->
<g id="node6" class="node"><title>6</title>
</g>
<!-- 7 -->
<g id="node7" class="node"><title>7</title>
</g>
<!-- 8 -->
<g id="node8" class="node"><title>8</title>
</g>
<!-- a0 -->
<g id="node9" class="node"><title>a0</title>
<ellipse fill="none" stroke="black" cx="295.247" cy="-343" rx="29.4969" ry="18"/>
<text text-anchor="middle" x="295.247" y="-339.3" font-family="Times,serif" font-size="14.00">sort</text>
</g>
<!-- a1 -->
<g id="node10" class="node"><title>a1</title>
<ellipse fill="none" stroke="black" cx="238.247" cy="-271" rx="29.4969" ry="18"/>
<text text-anchor="middle" x="238.247" y="-267.3" font-family="Times,serif" font-size="14.00">sort</text>
</g>
<!-- a0&#45;&gt;a1 -->
<g id="edge1" class="edge"><title>a0&#45;&gt;a1</title>
<path fill="none" stroke="black" d="M282.597,-326.465C275.144,-317.311 265.57,-305.554 257.226,-295.307"/>
<polygon fill="black" stroke="black" points="259.891,-293.036 250.862,-287.492 254.462,-297.456 259.891,-293.036"/>
</g>
<!-- a2 -->
<g id="node11" class="node"><title>a2</title>
<ellipse fill="none" stroke="black" cx="352.247" cy="-271" rx="29.4969" ry="18"/>
<text text-anchor="middle" x="352.247" y="-267.3" font-family="Times,serif" font-size="14.00">sort</text>
</g>
<!-- a0&#45;&gt;a2 -->
<g id="edge2" class="edge"><title>a0&#45;&gt;a2</title>
<path fill="none" stroke="black" d="M307.898,-326.465C315.351,-317.311 324.925,-305.554 333.269,-295.307"/>
<polygon fill="black" stroke="black" points="336.032,-297.456 339.633,-287.492 330.604,-293.036 336.032,-297.456"/>
</g>
<!-- a4 -->
<g id="node12" class="node"><title>a4</title>
<ellipse fill="none" stroke="black" cx="105.247" cy="-199" rx="29.4969" ry="18"/>
<text text-anchor="middle" x="105.247" y="-195.3" font-family="Times,serif" font-size="14.00">sort</text>
</g>
<!-- a1&#45;&gt;a4 -->
<g id="edge3" class="edge"><title>a1&#45;&gt;a4</title>
<path fill="none" stroke="black" d="M216.583,-258.597C194.652,-247.055 160.545,-229.104 135.858,-216.111"/>
<polygon fill="black" stroke="black" points="137.382,-212.958 126.903,-211.398 134.122,-219.152 137.382,-212.958"/>
</g>
<!-- a3 -->
<g id="node13" class="node"><title>a3</title>
<ellipse fill="none" stroke="black" cx="238.247" cy="-199" rx="29.4969" ry="18"/>
<text text-anchor="middle" x="238.247" y="-195.3" font-family="Times,serif" font-size="14.00">sort</text>
</g>
<!-- a1&#45;&gt;a3 -->
<g id="edge4" class="edge"><title>a1&#45;&gt;a3</title>
<path fill="none" stroke="black" d="M238.247,-252.697C238.247,-244.983 238.247,-235.712 238.247,-227.112"/>
<polygon fill="black" stroke="black" points="241.748,-227.104 238.247,-217.104 234.748,-227.104 241.748,-227.104"/>
</g>
<!-- a5 -->
<g id="node14" class="node"><title>a5</title>
<ellipse fill="none" stroke="black" cx="352.247" cy="-199" rx="29.4969" ry="18"/>
<text text-anchor="middle" x="352.247" y="-195.3" font-family="Times,serif" font-size="14.00">sort</text>
</g>
<!-- a2&#45;&gt;a5 -->
<g id="edge5" class="edge"><title>a2&#45;&gt;a5</title>
<path fill="none" stroke="black" d="M352.247,-252.697C352.247,-244.983 352.247,-235.712 352.247,-227.112"/>
<polygon fill="black" stroke="black" points="355.748,-227.104 352.247,-217.104 348.748,-227.104 355.748,-227.104"/>
</g>
<!-- a6 -->
<g id="node15" class="node"><title>a6</title>
<ellipse fill="none" stroke="black" cx="485.247" cy="-199" rx="29.4969" ry="18"/>
<text text-anchor="middle" x="485.247" y="-195.3" font-family="Times,serif" font-size="14.00">sort</text>
</g>
<!-- a2&#45;&gt;a6 -->
<g id="edge6" class="edge"><title>a2&#45;&gt;a6</title>
<path fill="none" stroke="black" d="M373.912,-258.597C395.843,-247.055 429.95,-229.104 454.637,-216.111"/>
<polygon fill="black" stroke="black" points="456.373,-219.152 463.592,-211.398 453.113,-212.958 456.373,-219.152"/>
</g>
<!-- a9 -->
<g id="node18" class="node"><title>a9</title>
<ellipse fill="none" stroke="black" cx="29.2474" cy="-127" rx="29.4969" ry="18"/>
<text text-anchor="middle" x="29.2474" y="-123.3" font-family="Times,serif" font-size="14.00">sort</text>
</g>
<!-- a4&#45;&gt;a9 -->
<g id="edge9" class="edge"><title>a4&#45;&gt;a9</title>
<path fill="none" stroke="black" d="M89.5002,-183.496C78.8004,-173.641 64.4664,-160.439 52.4637,-149.383"/>
<polygon fill="black" stroke="black" points="54.7011,-146.686 44.9745,-142.485 49.9588,-151.835 54.7011,-146.686"/>
</g>
<!-- a10 -->
<g id="node19" class="node"><title>a10</title>
<ellipse fill="none" stroke="black" cx="105.247" cy="-127" rx="29.4969" ry="18"/>
<text text-anchor="middle" x="105.247" y="-123.3" font-family="Times,serif" font-size="14.00">sort</text>
</g>
<!-- a4&#45;&gt;a10 -->
<g id="edge10" class="edge"><title>a4&#45;&gt;a10</title>
<path fill="none" stroke="black" d="M105.247,-180.697C105.247,-172.983 105.247,-163.712 105.247,-155.112"/>
<polygon fill="black" stroke="black" points="108.748,-155.104 105.247,-145.104 101.748,-155.104 108.748,-155.104"/>
</g>
<!-- a7 -->
<g id="node16" class="node"><title>a7</title>
<ellipse fill="none" stroke="black" cx="181.247" cy="-127" rx="29.4969" ry="18"/>
<text text-anchor="middle" x="181.247" y="-123.3" font-family="Times,serif" font-size="14.00">sort</text>
</g>
<!-- a3&#45;&gt;a7 -->
<g id="edge7" class="edge"><title>a3&#45;&gt;a7</title>
<path fill="none" stroke="black" d="M225.597,-182.465C218.144,-173.311 208.57,-161.554 200.226,-151.307"/>
<polygon fill="black" stroke="black" points="202.891,-149.036 193.862,-143.492 197.462,-153.456 202.891,-149.036"/>
</g>
<!-- a8 -->
<g id="node17" class="node"><title>a8</title>
<ellipse fill="none" stroke="black" cx="257.247" cy="-127" rx="29.4969" ry="18"/>
<text text-anchor="middle" x="257.247" y="-123.3" font-family="Times,serif" font-size="14.00">sort</text>
</g>
<!-- a3&#45;&gt;a8 -->
<g id="edge8" class="edge"><title>a3&#45;&gt;a8</title>
<path fill="none" stroke="black" d="M242.847,-181.055C244.994,-173.145 247.601,-163.54 250.004,-154.688"/>
<polygon fill="black" stroke="black" points="253.449,-155.357 252.69,-144.789 246.693,-153.523 253.449,-155.357"/>
</g>
<!-- a11 -->
<g id="node20" class="node"><title>a11</title>
<ellipse fill="none" stroke="black" cx="333.247" cy="-127" rx="29.4969" ry="18"/>
<text text-anchor="middle" x="333.247" y="-123.3" font-family="Times,serif" font-size="14.00">sort</text>
</g>
<!-- a5&#45;&gt;a11 -->
<g id="edge11" class="edge"><title>a5&#45;&gt;a11</title>
<path fill="none" stroke="black" d="M347.648,-181.055C345.501,-173.145 342.894,-163.54 340.491,-154.688"/>
<polygon fill="black" stroke="black" points="343.802,-153.523 337.804,-144.789 337.046,-155.357 343.802,-153.523"/>
</g>
<!-- a12 -->
<g id="node21" class="node"><title>a12</title>
<ellipse fill="none" stroke="black" cx="409.247" cy="-127" rx="29.4969" ry="18"/>
<text text-anchor="middle" x="409.247" y="-123.3" font-family="Times,serif" font-size="14.00">sort</text>
</g>
<!-- a5&#45;&gt;a12 -->
<g id="edge12" class="edge"><title>a5&#45;&gt;a12</title>
<path fill="none" stroke="black" d="M364.898,-182.465C372.351,-173.311 381.925,-161.554 390.269,-151.307"/>
<polygon fill="black" stroke="black" points="393.032,-153.456 396.633,-143.492 387.604,-149.036 393.032,-153.456"/>
</g>
<!-- a13 -->
<g id="node22" class="node"><title>a13</title>
<ellipse fill="none" stroke="black" cx="485.247" cy="-127" rx="29.4969" ry="18"/>
<text text-anchor="middle" x="485.247" y="-123.3" font-family="Times,serif" font-size="14.00">sort</text>
</g>
<!-- a6&#45;&gt;a13 -->
<g id="edge13" class="edge"><title>a6&#45;&gt;a13</title>
<path fill="none" stroke="black" d="M485.247,-180.697C485.247,-172.983 485.247,-163.712 485.247,-155.112"/>
<polygon fill="black" stroke="black" points="488.748,-155.104 485.247,-145.104 481.748,-155.104 488.748,-155.104"/>
</g>
<!-- a14 -->
<g id="node23" class="node"><title>a14</title>
<ellipse fill="none" stroke="black" cx="561.247" cy="-127" rx="29.4969" ry="18"/>
<text text-anchor="middle" x="561.247" y="-123.3" font-family="Times,serif" font-size="14.00">sort</text>
</g>
<!-- a6&#45;&gt;a14 -->
<g id="edge14" class="edge"><title>a6&#45;&gt;a14</title>
<path fill="none" stroke="black" d="M500.995,-183.496C511.694,-173.641 526.028,-160.439 538.031,-149.383"/>
<polygon fill="black" stroke="black" points="540.536,-151.835 545.52,-142.485 535.794,-146.686 540.536,-151.835"/>
</g>
<!-- a7&#45;&gt;1 -->
<g id="edge15" class="edge"><title>a7&#45;&gt;1</title>
<path fill="none" stroke="black" stroke-dasharray="1,5" d="M181.247,-108.809C181.247,-91.9611 181.247,-66.0183 181.247,-46.3394"/>
<polygon fill="black" stroke="black" points="184.748,-46.1487 181.247,-36.1487 177.748,-46.1488 184.748,-46.1487"/>
</g>
<!-- a8&#45;&gt;2 -->
<g id="edge16" class="edge"><title>a8&#45;&gt;2</title>
<path fill="none" stroke="black" stroke-dasharray="1,5" d="M257.247,-108.809C257.247,-91.9611 257.247,-66.0183 257.247,-46.3394"/>
<polygon fill="black" stroke="black" points="260.748,-46.1487 257.247,-36.1487 253.748,-46.1488 260.748,-46.1487"/>
</g>
<!-- a9&#45;&gt;3 -->
<g id="edge17" class="edge"><title>a9&#45;&gt;3</title>
<path fill="none" stroke="black" stroke-dasharray="1,5" d="M29.2474,-108.809C29.2474,-91.9611 29.2474,-66.0183 29.2474,-46.3394"/>
<polygon fill="black" stroke="black" points="32.7475,-46.1487 29.2474,-36.1487 25.7475,-46.1488 32.7475,-46.1487"/>
</g>
<!-- a10&#45;&gt;4 -->
<g id="edge18" class="edge"><title>a10&#45;&gt;4</title>
<path fill="none" stroke="black" stroke-dasharray="1,5" d="M105.247,-108.809C105.247,-91.9611 105.247,-66.0183 105.247,-46.3394"/>
<polygon fill="black" stroke="black" points="108.748,-46.1487 105.247,-36.1487 101.748,-46.1488 108.748,-46.1487"/>
</g>
<!-- a11&#45;&gt;5 -->
<g id="edge19" class="edge"><title>a11&#45;&gt;5</title>
<path fill="none" stroke="black" stroke-dasharray="1,5" d="M333.247,-108.809C333.247,-91.9611 333.247,-66.0183 333.247,-46.3394"/>
<polygon fill="black" stroke="black" points="336.748,-46.1487 333.247,-36.1487 329.748,-46.1488 336.748,-46.1487"/>
</g>
<!-- a12&#45;&gt;6 -->
<g id="edge20" class="edge"><title>a12&#45;&gt;6</title>
<path fill="none" stroke="black" stroke-dasharray="1,5" d="M409.247,-108.809C409.247,-91.9611 409.247,-66.0183 409.247,-46.3394"/>
<polygon fill="black" stroke="black" points="412.748,-46.1487 409.247,-36.1487 405.748,-46.1488 412.748,-46.1487"/>
</g>
<!-- a13&#45;&gt;7 -->
<g id="edge21" class="edge"><title>a13&#45;&gt;7</title>
<path fill="none" stroke="black" stroke-dasharray="1,5" d="M485.247,-108.809C485.247,-91.9611 485.247,-66.0183 485.247,-46.3394"/>
<polygon fill="black" stroke="black" points="488.748,-46.1487 485.247,-36.1487 481.748,-46.1488 488.748,-46.1487"/>
</g>
<!-- a14&#45;&gt;8 -->
<g id="edge22" class="edge"><title>a14&#45;&gt;8</title>
<path fill="none" stroke="black" stroke-dasharray="1,5" d="M561.247,-108.809C561.247,-91.9611 561.247,-66.0183 561.247,-46.3394"/>
<polygon fill="black" stroke="black" points="564.748,-46.1487 561.247,-36.1487 557.748,-46.1488 564.748,-46.1487"/>
</g>
</g>
</svg>
